<mxfile host="app.diagrams.net" modified="2023-10-16T02:49:44.131Z" agent="Mozilla/5.0 (Windows NT 10.0; Win64; x64) AppleWebKit/537.36 (KHTML, like Gecko) Chrome/117.0.0.0 Safari/537.36" etag="nadmdog4xmPL_sCTYNse" version="22.0.4" type="github">
  <diagram id="R2lEEEUBdFMjLlhIrx00" name="Page-1">
    <mxGraphModel dx="857" dy="617" grid="1" gridSize="10" guides="1" tooltips="1" connect="1" arrows="1" fold="1" page="1" pageScale="1" pageWidth="850" pageHeight="1100" math="0" shadow="0" extFonts="Permanent Marker^https://fonts.googleapis.com/css?family=Permanent+Marker">
      <root>
        <mxCell id="0" />
        <mxCell id="1" parent="0" />
        <mxCell id="1mtEhMqbldk43q9hsSjy-6" value="" style="edgeStyle=orthogonalEdgeStyle;rounded=0;orthogonalLoop=1;jettySize=auto;html=1;entryX=-0.012;entryY=0.592;entryDx=0;entryDy=0;entryPerimeter=0;" edge="1" parent="1" target="1mtEhMqbldk43q9hsSjy-4">
          <mxGeometry relative="1" as="geometry">
            <mxPoint x="510" y="185" as="sourcePoint" />
            <mxPoint x="620" y="150" as="targetPoint" />
            <Array as="points">
              <mxPoint x="510" y="230" />
              <mxPoint x="566" y="230" />
              <mxPoint x="566" y="207" />
            </Array>
          </mxGeometry>
        </mxCell>
        <mxCell id="1mtEhMqbldk43q9hsSjy-9" value="" style="edgeStyle=orthogonalEdgeStyle;rounded=0;orthogonalLoop=1;jettySize=auto;html=1;exitX=-0.006;exitY=0.864;exitDx=0;exitDy=0;entryX=1.002;entryY=0.682;entryDx=0;entryDy=0;entryPerimeter=0;exitPerimeter=0;" edge="1" parent="1" target="1mtEhMqbldk43q9hsSjy-7">
          <mxGeometry relative="1" as="geometry">
            <mxPoint x="360" y="230.08000000000004" as="sourcePoint" />
            <mxPoint x="241.01999999999995" y="130.01" as="targetPoint" />
            <Array as="points">
              <mxPoint x="241" y="230" />
              <mxPoint x="241" y="229" />
            </Array>
          </mxGeometry>
        </mxCell>
        <mxCell id="1mtEhMqbldk43q9hsSjy-20" value="" style="edgeStyle=orthogonalEdgeStyle;rounded=0;orthogonalLoop=1;jettySize=auto;html=1;exitX=-0.014;exitY=0.205;exitDx=0;exitDy=0;exitPerimeter=0;entryX=1.006;entryY=0.586;entryDx=0;entryDy=0;entryPerimeter=0;" edge="1" parent="1" target="1mtEhMqbldk43q9hsSjy-10">
          <mxGeometry relative="1" as="geometry">
            <mxPoint x="339.9699999999999" y="281" as="sourcePoint" />
            <mxPoint x="240" y="430" as="targetPoint" />
            <Array as="points">
              <mxPoint x="340" y="286" />
              <mxPoint x="253" y="286" />
              <mxPoint x="253" y="440" />
              <mxPoint x="240" y="440" />
              <mxPoint x="240" y="436" />
            </Array>
          </mxGeometry>
        </mxCell>
        <mxCell id="1mtEhMqbldk43q9hsSjy-22" value="" style="edgeStyle=orthogonalEdgeStyle;rounded=0;orthogonalLoop=1;jettySize=auto;html=1;" edge="1" parent="1" source="1mtEhMqbldk43q9hsSjy-2" target="1mtEhMqbldk43q9hsSjy-16">
          <mxGeometry relative="1" as="geometry" />
        </mxCell>
        <mxCell id="1mtEhMqbldk43q9hsSjy-23" style="edgeStyle=orthogonalEdgeStyle;rounded=0;orthogonalLoop=1;jettySize=auto;html=1;entryX=-0.013;entryY=0.641;entryDx=0;entryDy=0;entryPerimeter=0;" edge="1" parent="1" source="1mtEhMqbldk43q9hsSjy-2" target="1mtEhMqbldk43q9hsSjy-13">
          <mxGeometry relative="1" as="geometry">
            <mxPoint x="570" y="460" as="targetPoint" />
            <Array as="points">
              <mxPoint x="571" y="230" />
              <mxPoint x="571" y="450" />
              <mxPoint x="628" y="450" />
            </Array>
          </mxGeometry>
        </mxCell>
        <mxCell id="1mtEhMqbldk43q9hsSjy-2" value="&lt;br&gt;&lt;br&gt;primary id (int)&lt;br&gt;title&lt;br&gt;description&lt;br&gt;release_year&lt;br&gt;age&lt;br&gt;show_type&lt;br&gt;genres&lt;br&gt;production_countries&lt;br&gt;season&lt;br&gt;imdb_id&lt;br&gt;tmdb_score" style="rounded=0;whiteSpace=wrap;html=1;" vertex="1" parent="1">
          <mxGeometry x="340" y="120" width="170" height="220" as="geometry" />
        </mxCell>
        <mxCell id="1mtEhMqbldk43q9hsSjy-3" value="Shows" style="rounded=0;whiteSpace=wrap;html=1;" vertex="1" parent="1">
          <mxGeometry x="340" y="120" width="170" height="40" as="geometry" />
        </mxCell>
        <mxCell id="1mtEhMqbldk43q9hsSjy-4" value="&lt;br&gt;&lt;br&gt;&lt;br&gt;primary id&lt;br&gt;Age Restriction" style="rounded=0;whiteSpace=wrap;html=1;" vertex="1" parent="1">
          <mxGeometry x="620" y="130" width="170" height="130" as="geometry" />
        </mxCell>
        <mxCell id="1mtEhMqbldk43q9hsSjy-5" value="AgeRestrictions" style="rounded=0;whiteSpace=wrap;html=1;" vertex="1" parent="1">
          <mxGeometry x="620" y="130" width="170" height="40" as="geometry" />
        </mxCell>
        <mxCell id="1mtEhMqbldk43q9hsSjy-7" value="&lt;br&gt;&lt;br&gt;&lt;br&gt;imdbid&lt;br&gt;Score&lt;br&gt;Votes" style="rounded=0;whiteSpace=wrap;html=1;" vertex="1" parent="1">
          <mxGeometry x="60" y="140" width="170" height="130" as="geometry" />
        </mxCell>
        <mxCell id="1mtEhMqbldk43q9hsSjy-8" value="Imdb Table" style="rounded=0;whiteSpace=wrap;html=1;" vertex="1" parent="1">
          <mxGeometry x="60" y="140" width="170" height="40" as="geometry" />
        </mxCell>
        <mxCell id="1mtEhMqbldk43q9hsSjy-10" value="&lt;br&gt;&lt;br&gt;&lt;br&gt;primary id&lt;br&gt;Popularity&lt;br&gt;Votes" style="rounded=0;whiteSpace=wrap;html=1;" vertex="1" parent="1">
          <mxGeometry x="60" y="360" width="170" height="130" as="geometry" />
        </mxCell>
        <mxCell id="1mtEhMqbldk43q9hsSjy-11" value="Tmdb Table" style="rounded=0;whiteSpace=wrap;html=1;" vertex="1" parent="1">
          <mxGeometry x="60" y="360" width="170" height="40" as="geometry" />
        </mxCell>
        <mxCell id="1mtEhMqbldk43q9hsSjy-13" value="&lt;br&gt;&lt;br&gt;&lt;br&gt;primary id&lt;br&gt;genres&amp;nbsp;" style="rounded=0;whiteSpace=wrap;html=1;" vertex="1" parent="1">
          <mxGeometry x="630" y="370" width="170" height="130" as="geometry" />
        </mxCell>
        <mxCell id="1mtEhMqbldk43q9hsSjy-14" value="genres&amp;nbsp;" style="rounded=0;whiteSpace=wrap;html=1;" vertex="1" parent="1">
          <mxGeometry x="630" y="370" width="170" height="40" as="geometry" />
        </mxCell>
        <mxCell id="1mtEhMqbldk43q9hsSjy-15" value="&lt;br&gt;&lt;br&gt;&lt;br&gt;primary id&lt;br&gt;production_countries&amp;nbsp;" style="rounded=0;whiteSpace=wrap;html=1;" vertex="1" parent="1">
          <mxGeometry x="360" y="450" width="170" height="130" as="geometry" />
        </mxCell>
        <mxCell id="1mtEhMqbldk43q9hsSjy-16" value="production_countries" style="rounded=0;whiteSpace=wrap;html=1;" vertex="1" parent="1">
          <mxGeometry x="360" y="450" width="170" height="40" as="geometry" />
        </mxCell>
        <mxCell id="1mtEhMqbldk43q9hsSjy-17" value="Imdb Table" style="rounded=0;whiteSpace=wrap;html=1;" vertex="1" parent="1">
          <mxGeometry x="60" y="260" width="170" height="40" as="geometry" />
        </mxCell>
      </root>
    </mxGraphModel>
  </diagram>
</mxfile>
